<svg width="128" height="128" viewBox="0 0 128 128" fill="none" xmlns="http://www.w3.org/2000/svg">
<path d="M101.333 34.6668H85.3333V29.3335C85.3333 25.09 83.6476 21.0204 80.6471 18.0198C77.6465 15.0192 73.5768 13.3335 69.3334 13.3335H58.6667C54.4232 13.3335 50.3536 15.0192 47.353 18.0198C44.3524 21.0204 42.6667 25.09 42.6667 29.3335V34.6668H26.6667C22.4232 34.6668 18.3536 36.3525 15.353 39.3531C12.3524 42.3537 10.6667 46.4234 10.6667 50.6668V98.6668C10.6667 102.91 12.3524 106.98 15.353 109.981C18.3536 112.981 22.4232 114.667 26.6667 114.667H101.333C105.577 114.667 109.646 112.981 112.647 109.981C115.648 106.98 117.333 102.91 117.333 98.6668V50.6668C117.333 46.4234 115.648 42.3537 112.647 39.3531C109.646 36.3525 105.577 34.6668 101.333 34.6668ZM53.3334 29.3335C53.3334 27.919 53.8953 26.5625 54.8954 25.5623C55.8956 24.5621 57.2522 24.0002 58.6667 24.0002H69.3334C70.7478 24.0002 72.1044 24.5621 73.1046 25.5623C74.1048 26.5625 74.6667 27.919 74.6667 29.3335V34.6668H53.3334V29.3335ZM106.667 98.6668C106.667 100.081 106.105 101.438 105.105 102.438C104.104 103.438 102.748 104 101.333 104H26.6667C25.2522 104 23.8956 103.438 22.8955 102.438C21.8953 101.438 21.3334 100.081 21.3334 98.6668V69.3335C34.9134 74.7209 49.3904 77.4896 64 77.4935C78.6092 77.4845 93.0852 74.716 106.667 69.3335V98.6668ZM106.667 57.6535C93.2181 63.5616 78.6891 66.6123 64 66.6123C49.3109 66.6123 34.7819 63.5616 21.3334 57.6535V50.6668C21.3334 49.2523 21.8953 47.8958 22.8955 46.8956C23.8956 45.8954 25.2522 45.3335 26.6667 45.3335H101.333C102.748 45.3335 104.104 45.8954 105.105 46.8956C106.105 47.8958 106.667 49.2523 106.667 50.6668V57.6535Z" fill="black"/>
</svg>
