<svg width="128" height="128" viewBox="0 0 128 128" fill="none" xmlns="http://www.w3.org/2000/svg">
<path d="M101.333 21.3335H26.6667C22.4232 21.3335 18.3535 23.0192 15.353 26.0198C12.3524 29.0204 10.6667 33.09 10.6667 37.3335V90.6668C10.6667 94.9103 12.3524 98.98 15.353 101.981C18.3535 104.981 22.4232 106.667 26.6667 106.667H101.333C105.577 106.667 109.646 104.981 112.647 101.981C115.648 98.98 117.333 94.9103 117.333 90.6668V37.3335C117.333 33.09 115.648 29.0204 112.647 26.0198C109.646 23.0192 105.577 21.3335 101.333 21.3335V21.3335ZM26.6667 32.0002H101.333C102.748 32.0002 104.104 32.5621 105.105 33.5623C106.105 34.5625 106.667 35.919 106.667 37.3335L64 63.3602L21.3333 37.3335C21.3333 35.919 21.8952 34.5625 22.8954 33.5623C23.8956 32.5621 25.2522 32.0002 26.6667 32.0002V32.0002ZM106.667 90.6668C106.667 92.0813 106.105 93.4379 105.105 94.4381C104.104 95.4383 102.748 96.0002 101.333 96.0002H26.6667C25.2522 96.0002 23.8956 95.4383 22.8954 94.4381C21.8952 93.4379 21.3333 92.0813 21.3333 90.6668V49.4935L61.2267 73.8668C62.0374 74.3349 62.9571 74.5814 63.8933 74.5814C64.8295 74.5814 65.7492 74.3349 66.56 73.8668L106.667 49.4935V90.6668Z" fill="black"/>
</svg>
