<svg width="128" height="128" viewBox="0 0 128 128" fill="none" xmlns="http://www.w3.org/2000/svg">
<path d="M96 23.8935C87.5131 15.4066 76.0023 10.6387 64 10.6387C51.9977 10.6387 40.4869 15.4066 32 23.8935C23.5131 32.3804 18.7452 43.8912 18.7452 55.8935C18.7452 67.8958 23.5131 79.4066 32 87.8935L60.1067 116.054C60.6025 116.553 61.1923 116.95 61.8423 117.221C62.4922 117.492 63.1893 117.631 63.8933 117.631C64.5974 117.631 65.2945 117.492 65.9444 117.221C66.5943 116.95 67.1842 116.553 67.68 116.054L96 87.6268C104.451 79.1752 109.199 67.7125 109.199 55.7602C109.199 43.8079 104.451 32.3451 96 23.8935V23.8935ZM88.3733 80.0002L64 104.48L39.6267 80.0002C34.8114 75.1805 31.5332 69.0415 30.2064 62.3591C28.8795 55.6766 29.5637 48.7508 32.1723 42.4571C34.7809 36.1635 39.1969 30.7844 44.862 27.0001C50.5272 23.2157 57.1871 21.1958 64 21.1958C70.8129 21.1958 77.4728 23.2157 83.138 27.0001C88.8031 30.7844 93.2191 36.1635 95.8277 42.4571C98.4363 48.7508 99.1205 55.6766 97.7936 62.3591C96.4668 69.0415 93.1886 75.1805 88.3733 80.0002V80.0002ZM48 39.5202C43.6945 43.839 41.2768 49.6885 41.2768 55.7868C41.2768 61.8852 43.6945 67.7347 48 72.0535C51.1987 75.2577 55.2725 77.4459 59.7101 78.3437C64.1478 79.2414 68.7518 78.8086 72.9444 77.0997C77.137 75.3907 80.7316 72.4817 83.2772 68.7375C85.8228 64.9933 87.206 60.5808 87.2533 56.0535C87.2774 53.0306 86.6951 50.0336 85.5408 47.2396C84.3866 44.4456 82.6839 41.9114 80.5333 39.7868C78.4196 37.6246 75.8991 35.9017 73.1169 34.7173C70.3348 33.5329 67.3458 32.9104 64.3221 32.8857C61.2985 32.8609 58.2997 33.4343 55.4985 34.5729C52.6973 35.7115 50.1489 37.3929 48 39.5202V39.5202ZM73.0133 64.4802C70.9922 66.5321 68.3211 67.8183 65.4567 68.1189C62.5922 68.4194 59.7123 67.7156 57.3094 66.1278C54.9064 64.54 53.1296 62.1668 52.2827 59.414C51.4358 56.6611 51.5715 53.6996 52.6664 51.0357C53.7614 48.3718 55.7477 46.1709 58.2858 44.8094C60.8238 43.4479 63.756 43.0103 66.581 43.5715C69.406 44.1326 71.9483 45.6576 73.7734 47.8857C75.5984 50.1138 76.5929 52.9067 76.5867 55.7868C76.5091 59.0789 75.128 62.2057 72.7467 64.4802H73.0133Z" fill="black"/>
</svg>
