<svg width="128" height="128" viewBox="0 0 128 128" fill="none" xmlns="http://www.w3.org/2000/svg">
<path d="M101.333 50.6667H99.6267L92.96 34.0267C91.7693 31.0681 89.7217 28.5328 87.0798 26.7462C84.438 24.9597 81.3225 24.0034 78.1333 24.0001H46.1333C42.4282 23.9895 38.8342 25.2651 35.9649 27.6092C33.0955 29.9533 31.1287 33.2206 30.4 36.8534L27.6267 50.6667H26.6667C22.4232 50.6667 18.3535 52.3524 15.3529 55.353C12.3524 58.3536 10.6667 62.4233 10.6667 66.6667V82.6667C10.6667 84.0812 11.2286 85.4378 12.2288 86.438C13.2289 87.4382 14.5855 88.0001 16 88.0001H21.3333C21.3333 92.2435 23.019 96.3132 26.0196 99.3138C29.0202 102.314 33.0899 104 37.3333 104C41.5768 104 45.6464 102.314 48.647 99.3138C51.6476 96.3132 53.3333 92.2435 53.3333 88.0001H74.6667C74.6667 92.2435 76.3524 96.3132 79.3529 99.3138C82.3535 102.314 86.4232 104 90.6667 104C94.9101 104 98.9798 102.314 101.98 99.3138C104.981 96.3132 106.667 92.2435 106.667 88.0001H112C113.414 88.0001 114.771 87.4382 115.771 86.438C116.771 85.4378 117.333 84.0812 117.333 82.6667V66.6667C117.333 62.4233 115.648 58.3536 112.647 55.353C109.646 52.3524 105.577 50.6667 101.333 50.6667V50.6667ZM69.3333 34.6667H78.1333C79.1924 34.6763 80.2246 35.001 81.0984 35.5994C81.9723 36.1978 82.6482 37.0428 83.04 38.0267L88.1067 50.6667H69.3333V34.6667ZM40.8533 38.9334C41.1027 37.7106 41.7729 36.6139 42.7474 35.8343C43.7219 35.0547 44.9389 34.6416 46.1867 34.6667H58.6667V50.6667H38.5067L40.8533 38.9334ZM37.3333 93.3334C36.2785 93.3334 35.2473 93.0206 34.3703 92.4346C33.4932 91.8485 32.8096 91.0156 32.406 90.041C32.0023 89.0665 31.8967 87.9941 32.1025 86.9596C32.3083 85.925 32.8162 84.9747 33.5621 84.2288C34.308 83.483 35.2583 82.975 36.2928 82.7692C37.3274 82.5634 38.3998 82.669 39.3743 83.0727C40.3488 83.4764 41.1818 84.16 41.7678 85.037C42.3539 85.9141 42.6667 86.9452 42.6667 88.0001C42.6667 89.4146 42.1048 90.7711 41.1046 91.7713C40.1044 92.7715 38.7478 93.3334 37.3333 93.3334ZM90.6667 93.3334C89.6118 93.3334 88.5807 93.0206 87.7036 92.4346C86.8265 91.8485 86.143 91.0156 85.7393 90.041C85.3356 89.0665 85.23 87.9941 85.4358 86.9596C85.6416 85.925 86.1495 84.9747 86.8954 84.2288C87.6413 83.483 88.5916 82.975 89.6262 82.7692C90.6607 82.5634 91.7331 82.669 92.7076 83.0727C93.6822 83.4764 94.5151 84.16 95.1012 85.037C95.6872 85.9141 96 86.9452 96 88.0001C96 89.4146 95.4381 90.7711 94.4379 91.7713C93.4377 92.7715 92.0811 93.3334 90.6667 93.3334ZM106.667 77.3334H102.507C101.007 75.6835 99.1791 74.3652 97.1402 73.4632C95.1012 72.5611 92.8962 72.0951 90.6667 72.0951C88.4371 72.0951 86.2321 72.5611 84.1931 73.4632C82.1542 74.3652 80.3263 75.6835 78.8267 77.3334H49.1733C47.6737 75.6835 45.8458 74.3652 43.8068 73.4632C41.7679 72.5611 39.5629 72.0951 37.3333 72.0951C35.1037 72.0951 32.8988 72.5611 30.8598 73.4632C28.8209 74.3652 26.993 75.6835 25.4933 77.3334H21.3333V66.6667C21.3333 65.2522 21.8952 63.8957 22.8954 62.8955C23.8956 61.8953 25.2522 61.3334 26.6667 61.3334H101.333C102.748 61.3334 104.104 61.8953 105.105 62.8955C106.105 63.8957 106.667 65.2522 106.667 66.6667V77.3334Z" fill="black"/>
</svg>
