<svg width="148" height="148" viewBox="0 0 148 148" fill="none" xmlns="http://www.w3.org/2000/svg">
<path d="M96.8783 78.3785C102.924 73.6218 107.337 67.0991 109.503 59.7178C111.669 52.3364 111.48 44.4634 108.964 37.1942C106.447 29.9249 101.727 23.6209 95.4604 19.1591C89.1939 14.6973 81.6926 12.2996 74 12.2996C66.3074 12.2996 58.806 14.6973 52.5395 19.1591C46.2731 23.6209 41.5531 29.9249 39.0363 37.1942C36.5195 44.4634 36.331 52.3364 38.497 59.7178C40.663 67.0991 45.0759 73.6218 51.1216 78.3785C40.7621 82.5289 31.7231 89.4128 24.9681 98.2963C18.2132 107.18 13.9956 117.73 12.765 128.822C12.6759 129.632 12.7472 130.451 12.9748 131.233C13.2024 132.016 13.5819 132.745 14.0915 133.381C15.1208 134.665 16.6178 135.487 18.2533 135.667C19.8888 135.847 21.5288 135.37 22.8125 134.34C24.0962 133.311 24.9184 131.814 25.0983 130.178C26.4524 118.124 32.2004 106.991 41.244 98.906C50.2876 90.8214 61.9929 86.3521 74.1233 86.3521C86.2538 86.3521 97.959 90.8214 107.003 98.906C116.046 106.991 121.794 118.124 123.148 130.178C123.316 131.694 124.039 133.093 125.178 134.107C126.317 135.12 127.79 135.676 129.315 135.667H129.993C131.61 135.481 133.087 134.663 134.104 133.393C135.12 132.122 135.593 130.501 135.42 128.883C134.184 117.76 129.943 107.183 123.154 98.2857C116.364 89.3886 107.281 82.5069 96.8783 78.3785V78.3785ZM74 74.0001C69.1214 74.0001 64.3523 72.5534 60.2959 69.843C56.2395 67.1326 53.0779 63.2802 51.2109 58.773C49.344 54.2657 48.8555 49.3061 49.8073 44.5212C50.759 39.7364 53.1083 35.3412 56.558 31.8915C60.0077 28.4418 64.4029 26.0925 69.1877 25.1407C73.9726 24.189 78.9323 24.6775 83.4395 26.5444C87.9467 28.4114 91.7991 31.573 94.5096 35.6294C97.22 39.6858 98.6666 44.4548 98.6666 49.3335C98.6666 55.8755 96.0678 62.1495 91.4419 66.7754C86.816 71.4013 80.542 74.0001 74 74.0001Z" fill="black"/>
</svg>
