<svg width="128" height="128" viewBox="0 0 128 128" fill="none" xmlns="http://www.w3.org/2000/svg">
<path d="M65.6 65.1734C68.4458 62.7101 70.7283 59.6635 72.2927 56.2402C73.8571 52.8169 74.6667 49.0972 74.6667 45.3334C74.6667 38.261 71.8572 31.4782 66.8562 26.4772C61.8552 21.4763 55.0725 18.6667 48 18.6667C40.9276 18.6667 34.1448 21.4763 29.1438 26.4772C24.1429 31.4782 21.3333 38.261 21.3333 45.3334C21.3333 49.0972 22.143 52.8169 23.7073 56.2402C25.2717 59.6635 27.5543 62.7101 30.4 65.1734C22.9341 68.5541 16.5998 74.0136 12.1546 80.899C7.70932 87.7844 5.34119 95.8044 5.33334 104C5.33334 105.415 5.89525 106.771 6.89544 107.771C7.89563 108.772 9.25219 109.333 10.6667 109.333C12.0812 109.333 13.4377 108.772 14.4379 107.771C15.4381 106.771 16 105.415 16 104C16 95.5131 19.3714 87.3738 25.3726 81.3727C31.3738 75.3715 39.5131 72.0001 48 72.0001C56.4869 72.0001 64.6263 75.3715 70.6274 81.3727C76.6286 87.3738 80 95.5131 80 104C80 105.415 80.5619 106.771 81.5621 107.771C82.5623 108.772 83.9189 109.333 85.3333 109.333C86.7478 109.333 88.1044 108.772 89.1046 107.771C90.1048 106.771 90.6667 105.415 90.6667 104C90.6588 95.8044 88.2907 87.7844 83.8455 80.899C79.4002 74.0136 73.0659 68.5541 65.6 65.1734V65.1734ZM48 61.3334C44.8355 61.3334 41.7421 60.395 39.1109 58.6369C36.4797 56.8788 34.4289 54.38 33.2179 51.4563C32.0069 48.5327 31.6901 45.3157 32.3074 42.212C32.9248 39.1083 34.4487 36.2573 36.6863 34.0197C38.9239 31.7821 41.7749 30.2582 44.8786 29.6409C47.9823 29.0235 51.1993 29.3403 54.1229 30.5513C57.0466 31.7623 59.5454 33.8131 61.3035 36.4443C63.0616 39.0755 64 42.1689 64 45.3334C64 49.5769 62.3143 53.6465 59.3137 56.6471C56.3131 59.6477 52.2435 61.3334 48 61.3334ZM99.9467 63.0401C103.36 59.1965 105.589 54.4484 106.367 49.3672C107.145 44.2861 106.437 39.0885 104.329 34.4001C102.222 29.7117 98.8042 25.7323 94.4879 22.941C90.1715 20.1497 85.1403 18.6654 80 18.6667C78.5855 18.6667 77.229 19.2287 76.2288 20.2288C75.2286 21.229 74.6667 22.5856 74.6667 24.0001C74.6667 25.4146 75.2286 26.7711 76.2288 27.7713C77.229 28.7715 78.5855 29.3334 80 29.3334C84.2435 29.3334 88.3131 31.0191 91.3137 34.0197C94.3143 37.0203 96 41.0899 96 45.3334C95.9925 48.1347 95.2496 50.8849 93.8457 53.309C92.4418 55.7331 90.426 57.7461 88 59.1467C87.2093 59.6029 86.5489 60.2543 86.082 61.0387C85.615 61.8231 85.3573 62.7142 85.3333 63.6267C85.311 64.5322 85.5197 65.4283 85.9395 66.2308C86.3594 67.0332 86.9768 67.7156 87.7334 68.2134L89.8133 69.6001L90.5067 69.9734C96.9355 73.0226 102.359 77.8454 106.139 83.8738C109.918 89.9021 111.896 96.8851 111.84 104C111.84 105.415 112.402 106.771 113.402 107.771C114.402 108.772 115.759 109.333 117.173 109.333C118.588 109.333 119.944 108.772 120.945 107.771C121.945 106.771 122.507 105.415 122.507 104C122.55 95.8157 120.5 87.7561 116.552 80.5871C112.603 73.4181 106.887 67.3777 99.9467 63.0401V63.0401Z" fill="black"/>
</svg>
